<?xml version="1.0" encoding="UTF-8" standalone="no"?>
<svg
   xmlns:dc="http://purl.org/dc/elements/1.1/"
   xmlns:cc="http://creativecommons.org/ns#"
   xmlns:rdf="http://www.w3.org/1999/02/22-rdf-syntax-ns#"
   xmlns:svg="http://www.w3.org/2000/svg"
   xmlns="http://www.w3.org/2000/svg"
   id="svg24"
   version="1.1"
   height="2854"
   width="7423">
  <metadata
     id="metadata28">
    <rdf:RDF>
      <cc:Work
         rdf:about="">
        <dc:format>image/svg+xml</dc:format>
        <dc:type
           rdf:resource="http://purl.org/dc/dcmitype/StillImage" />
        <dc:title></dc:title>
      </cc:Work>
    </rdf:RDF>
  </metadata>
  <defs
     id="defs4">
    <style
       id="style2"
       type="text/css"><![CDATA[
    .str1 {stroke:#E63C24;stroke-width:100;stroke-miterlimit:22.9256}
    .str0 {stroke:#2B4594;stroke-width:100;stroke-miterlimit:22.9256}
    .fil2 {fill:#666666}
    .fil0 {fill:#FEFEFE;fill-rule:nonzero}
    .fil1 {fill:#666666;fill-rule:nonzero}
   ]]></style>
  </defs>
  <g
     id="g9">
    <title
       id="title6">background</title>
    <rect
       x="-1"
       y="-1"
       width="7425"
       height="2856"
       id="canvas_background"
       fill="none" />
  </g>
  <g
     id="g22">
    <title
       id="title11">Layer 1</title>
    <g
       id="Слой_x0020_1">
      <metadata
         id="CorelCorpID_0Corel-Layer"
         transform="translate(0,60.00001907348633) translate(-20.00000762939453,-360.0001220703125) translate(1,1) translate(-2340.000732421875,-1900.0006103515625) translate(-2140.000732421875,-6740.00244140625) translate(3360.001220703125,-600.0001831054688) " />
      <polygon
         class="fil0 str0"
         points="1301.15966796875,1858.3170356750488 1519.27978515625,848.1169624328613 1020.72998046875,1295.2468452453613 746.06005859375,849.5564155578613 488.0498046875,1846.8573188781738 96.33983612060547,1849.4774360656738 506.94970703125,185.94704055786133 840.2197265625,179.04664993286133 1150.44970703125,635.0466499328613 1649.03955078125,176.99684524536133 2066.599853515625,180.90700149536133 1708.81982421875,1858.3170356750488 "
         id="svg_1" />
      <polygon
         class="fil0 str1"
         points="1676.12939453125,2478.4775581359863 2024.199462890625,858.5066108703613 3091.480224609375,856.2771186828613 2979.579345703125,1351.6169624328613 2670.539306640625,1352.3171577453613 2693.480224609375,1240.6872749328613 2354.179931640625,1238.8171577453613 2170.949951171875,2097.277240753174 2548.519287109375,2097.706684112549 2575.820068359375,2000.0770454406738 2899.070068359375,2000.0770454406738 2783.289794921875,2480.5366401672363 "
         id="svg_2" />
      <g
         id="_760636352">
        <path
           class="fil1"
           d="m3298.45975,1450.80666c-59.17,0 -107.15,-47.98 -107.15,-107.14c0,-59.16 47.98,-107.14 107.15,-107.14c120.36,0 229.36,48.8 308.25,127.71c78.89,78.89 127.71,187.88 127.71,308.25c0,59.17 -47.98,107.15 -107.14,107.15c-59.16,0 -107.14,-47.98 -107.14,-107.15c0,-61.22 -24.82,-116.65 -64.93,-156.75c-40.1,-40.11 -95.53,-64.93 -156.75,-64.93z"
           id="svg_3" />
        <circle
           class="fil2"
           cx="3234.16975"
           cy="1736.77666"
           r="107.14"
           id="svg_4" />
        <path
           class="fil1"
           d="m3298.45975,1024.12666c-59.17,0 -107.15,-47.98 -107.15,-107.14c0,-59.16 47.98,-107.14 107.15,-107.14c238.17,0 453.85,96.58 609.96,252.68c156.1,156.11 252.68,371.77 252.68,609.96c0,59.17 -47.98,107.15 -107.14,107.15c-59.16,0 -107.14,-47.98 -107.14,-107.15c0,-179.04 -72.58,-341.14 -189.9,-458.46c-117.32,-117.32 -279.42,-189.9 -458.46,-189.9z"
           id="svg_5" />
      </g>
      <path
         class="fil1"
         d="m3059.27975,2540.18666l124.96,-466.68l-160.31,0l33.31,-123.5l488.46,0l-33.12,123.5l-157.93,0l-124.77,466.68l-170.6,0zm989.7,-264.81l-382.57,0c-4.3,19.2 -6.91,33.45 -7.88,43.15c-3.78,37.8 3.28,66.3 20.79,85.1c17.71,19 40.51,28.5 68.61,28.5c55.81,0 98.67,-30.88 128.2,-92.63l142.43,24.35c-25.44,56.6 -63.47,102.52 -114.09,137.75c-50.82,35.23 -109.98,52.84 -177.66,52.84c-77.78,0 -138.21,-25.14 -181.7,-75.21c-43.27,-50.27 -60.9,-115.58 -52.85,-196.13c8.95,-89.66 45.41,-169.42 109.43,-239.68c64.01,-70.26 142.92,-105.29 236.93,-105.29c78.77,0 137.57,25.53 176.43,76.4c38.64,51.06 54.28,114.39 46.71,190.19c-1.66,16.63 -5.98,40.18 -12.78,70.66zm-360.98,-97.37l214.34,0c3.3,-13.26 5.46,-24.94 6.51,-35.43c3.08,-30.88 -3.43,-54.82 -19.39,-71.45c-16.15,-16.62 -36.7,-24.94 -61.44,-24.94c-65.51,0 -112.25,43.94 -140.02,131.82zm312.57,362.18l351.96,-585.43l192.37,0l20.92,585.43l-170.8,0l-2.13,-428.68l-8.71,0l-253.77,428.68l-129.84,0zm1213.74,-264.81l-382.57,0c-4.3,19.2 -6.91,33.45 -7.88,43.15c-3.78,37.8 3.28,66.3 20.79,85.1c17.71,19 40.51,28.5 68.61,28.5c55.81,0 98.67,-30.88 128.2,-92.63l142.43,24.35c-25.44,56.6 -63.47,102.52 -114.09,137.75c-50.82,35.23 -109.98,52.84 -177.66,52.84c-77.78,0 -138.21,-25.14 -181.7,-75.21c-43.27,-50.27 -60.9,-115.58 -52.85,-196.13c8.95,-89.66 45.41,-169.42 109.43,-239.68c64.01,-70.26 142.92,-105.29 236.93,-105.29c78.77,0 137.57,25.53 176.43,76.4c38.64,51.06 54.28,114.39 46.71,190.19c-1.66,16.63 -5.98,40.18 -12.78,70.66zm-360.98,-97.37l214.34,0c3.3,-13.26 5.46,-24.94 6.51,-35.43c3.08,-30.88 -3.43,-54.82 -19.39,-71.45c-16.15,-16.62 -36.7,-24.94 -61.44,-24.94c-65.51,0 -112.25,43.94 -140.02,131.82zm877.81,-26.33l90.26,388.51l-179.12,0l-60.62,-270.95l-107.99,90.45l-48.3,180.5l-170.41,0l157.48,-590.18l170.41,0l-65.19,244.62l266.07,-244.62l179.71,0l-232.3,201.67zm518.14,-215.92c76.79,0 136.41,25.33 178.83,76.19c42.42,50.87 59.52,117.37 51.3,199.7c-9.39,94.01 -46.08,174.17 -110.32,240.67c-64.23,66.5 -139.79,99.74 -226.67,99.74c-74.81,0 -134.05,-25.13 -177.92,-75.4c-43.86,-50.27 -61.89,-113.6 -54.24,-190.2c10.06,-100.74 46.53,-184.45 109.37,-250.95c62.85,-66.5 139.4,-99.75 229.65,-99.75zm-12.18,114c-48.89,0 -85.93,30.08 -110.76,90.44c-24.8,60.17 -40.31,122.32 -46.67,186.04c-7.45,74.62 18.51,111.83 78.09,111.83c48.48,0 85.19,-32.66 109.75,-98.17c24.55,-65.51 39.38,-124.88 44.72,-178.32c7.45,-74.62 -17.54,-111.82 -75.13,-111.82zm267.9,490.43l157.48,-590.18l243.44,0l1.15,476.18l261.09,-476.18l234.53,0l-158.28,590.18l-155.16,0l126.55,-472.62l-9.7,0l-259.15,472.62l-170.61,0l-3.67,-472.62l-10.49,0l-126.16,472.62l-131.02,0z"
         id="svg_6" />
    </g>
  </g>
  <path
     id="path30"
     d="m 3999.407,1755.4029 c -13.8235,-8.7616 -36.0429,-78.7519 -49.3764,-155.5339 -13.3335,-76.7821 -42.6899,-175.7633 -65.2365,-219.9582 -96.3182,-188.7993 -292.6044,-329.6271 -489.4073,-351.131 -134.3779,-14.6829 -186.2514,-48.09741 -186.2514,-119.9744 0,-82.71263 59.4072,-104.11937 216.6424,-78.06466 240.4095,39.83714 464.0807,183.53966 589.2255,378.56096 115.2481,179.5986 169.8512,465.221 101.9232,533.149 -32.4263,32.4263 -78.7408,37.5307 -117.5195,12.9522 z"
     style="fill:#ffffff;stroke-width:18.74494934" />
  <path
     id="path32"
     d="m 3558.8222,1737.6274 c -17.0625,-18.8538 -31.0542,-54.7035 -31.0928,-79.666 -0.086,-55.3246 -60.5384,-158.5078 -106.7103,-182.1369 -18.5937,-9.5156 -62.5261,-22.7569 -97.6275,-29.4251 -35.1014,-6.6682 -75.1688,-21.542 -89.0385,-33.0529 -31.2929,-25.9708 -32.9522,-113.5757 -2.7238,-143.8041 64.985,-64.985 311.9935,20.75 402.806,139.8113 61.4862,80.6125 104.1866,235.4706 81.4316,295.3209 -27.3312,71.8864 -106.7325,88.5472 -157.0447,32.9528 z"
     style="fill:#ffffff;stroke-width:18.74494934" />
  <path
     id="path34"
     d="m 3153.56,1791.8843 c -28.0497,-52.4114 -24.0195,-84.97 14.8752,-120.1692 49.5022,-44.7988 110.1119,-38.2016 145.5211,15.8397 28.4439,43.4109 28.4439,50.3139 0,93.7247 -38.4576,58.6938 -131.3721,64.8369 -160.3963,10.6048 z"
     style="fill:#ffffff;stroke-width:18.74494934" />
  <path
     id="path36"
     d="m 3077.9207,2519.5501 c 0,-16.9644 64.7806,-271.3637 105.6558,-414.9202 7.831,-27.503 -3.3329,-32.8036 -69.089,-32.8036 -72.1863,0 -77.5295,-3.3572 -67.1264,-42.1762 6.2165,-23.1968 11.4179,-48.5025 11.5587,-56.2348 0.1408,-7.7323 106.6801,-14.0587 236.7541,-14.0587 236.1096,0 236.4795,0.069 225.1953,42.1761 -6.2165,23.1969 -11.4179,48.5026 -11.5587,56.2349 -0.1408,7.7322 -36.978,14.0587 -81.8606,14.0587 h -81.6046 l -61.7301,234.3118 -61.7302,234.3119 h -72.2321 c -40.6233,0 -72.2322,-9.1458 -72.2322,-20.8999 z"
     style="fill:#ffffff;stroke-width:18.74494934" />
  <path
     id="path38"
     d="m 3600.6809,2512.3393 c -59.998,-32.6083 -98.5679,-120.2866 -94.834,-215.5792 3.9099,-99.7826 28.3484,-154.922 107.4882,-242.5202 173.4856,-192.0279 439.0404,-116.2343 439.2529,125.3698 l 0.07,79.6661 h -196.822 -196.822 v 75.3816 c 0,60.261 8.5667,79.2849 42.7075,94.8405 50.7168,23.1081 139.7719,-4.2445 156.6004,-48.0986 12.1343,-31.6217 76.3846,-37.2184 118.8651,-10.3541 23.2477,14.7017 20.2767,25.3367 -18.745,67.1013 -25.5041,27.2969 -69.1491,61.4821 -96.9889,75.9671 -64.4985,33.5585 -197.4254,32.6541 -260.7723,-1.7744 z m 317.5311,-371.6142 c 8.2904,-43.5006 -47.7714,-106.3887 -94.8405,-106.3887 -38.7356,0 -145.6124,95.9072 -145.6124,130.6671 0,13.9558 39.5356,19.1951 116.9677,15.5007 95.75,-4.5684 118.1499,-11.7842 123.4852,-39.7791 z"
     style="fill:#ffffff;stroke-width:18.74494934" />
  <path
     id="path40"
     d="m 4020.6857,2526.3913 c 4.2515,-7.7323 81.7823,-138.4783 172.2906,-290.5467 l 164.5606,-276.488 h 91.2449 91.245 v 118.9625 c 0,65.4293 5.4807,196.1753 12.1794,290.5467 l 12.1793,171.5842 h -77.7867 -77.7867 v -215.5669 c 0,-118.5618 -7.4425,-215.5669 -16.5389,-215.5669 -9.0963,0 -74.2624,97.0051 -144.8134,215.5669 -115.4578,194.0283 -133.5815,215.5669 -181.3893,215.5669 -29.2132,0 -49.6363,-6.3264 -45.3848,-14.0587 z"
     style="fill:#ffffff;stroke-width:18.74494934" />
  <path
     id="path42"
     d="m 4734.9742,2476.7172 c -55.9474,-55.9475 -63.7328,-75.5022 -63.7328,-160.0789 0,-248.0548 235.1602,-438.3529 426.1391,-344.8435 83.5277,40.8978 116.8124,99.7369 117.1881,207.1592 l 0.2763,79.0102 -192.1357,5.342 -192.1357,5.342 -4.8834,56.2349 c -2.6859,30.9291 2.8984,68.1847 12.4096,82.7902 26.2752,40.3486 127.2395,32.311 176.5978,-14.0587 46.6577,-43.8327 81.1729,-50.0807 124.6764,-22.5694 23.2477,14.7017 20.2768,25.3367 -18.7449,67.1013 -67.6539,72.4095 -136.2542,102.3035 -234.7643,102.3035 -74.1272,0 -96.686,-9.5283 -150.8905,-63.7328 z m 348.6561,-337.9447 c 0,-129.5798 -150.4376,-136.6577 -215.8543,-10.1557 l -28.7928,55.6792 h 122.3236 c 117.0224,0 122.3235,-1.9729 122.3235,-45.5235 z"
     style="fill:#ffffff;stroke-width:18.74494934" />
  <path
     id="path44"
     d="m 5271.2827,2526.3913 c 0.1116,-7.7323 32.4657,-136.3695 71.8982,-285.8605 l 71.6953,-271.8018 78.0614,-5.764 c 42.9337,-3.1702 77.9613,-3.1702 77.8389,0 -0.1224,3.1702 -12.6751,52.1578 -27.8949,108.8613 -15.2199,56.7034 -27.7726,110.1819 -27.895,118.841 -0.1218,8.6591 61.8866,-39.8434 137.7976,-107.7835 119.9815,-107.3829 147.5425,-123.5228 210.8806,-123.4934 l 72.8607,0.034 -107.5849,98.3772 -107.5848,98.3771 37.8636,159.3321 c 20.825,87.6326 42.3921,174.0937 47.9269,192.1357 8.543,27.8478 -2.5869,32.8037 -73.6704,32.8037 h -83.7338 l -31.2737,-140.5689 -31.2736,-140.569 -60.6367,46.2499 c -43.732,33.3561 -67.3759,72.5448 -84.81,140.569 -23.847,93.0463 -25.1616,94.319 -97.4208,94.319 -40.2861,0 -73.1562,-6.3264 -73.0446,-14.0587 z"
     style="fill:#ffffff;stroke-width:18.74494934" />
  <path
     id="path46"
     d="m 6006.0863,2494.0378 c -72.3687,-60.8943 -96.164,-140.7521 -75.3487,-252.8734 30.1438,-162.3699 171.5065,-298.7987 310.9954,-300.1411 142.107,-1.3676 239.3122,111.1991 224.8951,260.4356 -18.8115,194.7235 -132.7592,320.7868 -302.6951,334.8792 -85.411,7.0829 -105.5822,1.6774 -157.8467,-42.3003 z m 237.2822,-95.3194 c 45.9189,-58.3765 86.9393,-230.2112 70.5472,-295.5228 -24.0557,-95.8453 -135.8366,-79.7603 -191.3187,27.5303 -41.1794,79.6321 -57.2955,251.0641 -27.0305,287.5312 35.9901,43.3654 105.5553,34.1692 147.802,-19.5387 z"
     style="fill:#ffffff;stroke-width:18.74494934" />
  <path
     id="path48"
     d="m 6567.0356,2339.9908 c 30.2889,-111.4065 64.6419,-242.6245 76.34,-291.5957 l 21.2693,-89.0385 h 118.0627 118.0627 l 5.2463,238.9981 5.2463,238.9981 130.4245,-238.9981 130.4244,-238.9981 h 108.5737 c 59.7155,0 108.5736,2.3931 108.5736,5.318 0,2.925 -33.7409,130.2341 -74.9798,282.9091 -41.2389,152.6751 -74.9798,281.028 -74.9798,285.2287 0,4.2007 -29.5233,7.6376 -65.6073,7.6376 -36.0841,0 -65.6074,-8.859 -65.6074,-19.6866 0,-10.8276 25.9723,-117.0072 57.7162,-235.9547 31.7439,-118.9475 53.6715,-220.3128 48.728,-225.2563 -4.9435,-4.9435 -69.4034,101.2361 -143.2442,235.9547 l -134.256,244.9429 h -73.804 -73.8041 v -233.2056 c 0,-128.2631 -7.3333,-237.7378 -16.2963,-243.2773 -8.9629,-5.5394 -44.8634,97.2943 -79.7787,228.5194 -63.4067,238.3062 -63.5528,238.5979 -122.4316,244.3262 l -58.9491,5.7353 z"
     style="fill:#ffffff;stroke-width:18.74494934" />
</svg>
